# xmcd
#
# Track frame offsets:
#	150
#	15120
#	26875
#	47585
#	66817
#	79882
#	99582
#	117610
#	128427
#	146022
#	162387
#	179017
#	195442
#	214795
#	225300
#	239287
#
# Disc length: 3419 seconds
#
# Revision: 3
# Processed by: cddbd v1.5.2PL0 Copyright (c) Steve Scherf et al.
# Submitted via: audiograbber 1.83.01
#
DISCID=d40d5910
DTITLE=KARAOKE BAY - KB1621772
DYEAR=1900
DGENRE=karaoke
TTITLE0=Jackson, Alan  - Pop A Top
TTITLE1=Brooks, Garth  - Longneck Bottle
TTITLE2=Longstar - Amazed 
TTITLE3=Black, Clint  - When I Said I Do
TTITLE4=Mcgraw, Tim  - Refried Beans
TTITLE5=Montgomery, John Michael  - I Swear 
TTITLE6=Diffe, Joe  - Prop Me Up Beside The Jukebox
TTITLE7=Walker, Clay  - If I Could Make A Living
TTITLE8=Keith, Toby  - Should`ve Been A Cowboy
TTITLE9=Brook and Dunn - Rock My World
TTITLE10=Chesnutt, Mark - Too Cold Aat Home
TTITLE11=Diamond Rio - Bubba Hyde
TTITLE12=Byrd, Tracy  - Keeper Of The Stars
TTITLE13=Strait, George - The Big One
TTITLE14=Raye, Collin  - Thats My Story
TTITLE15=Alabama - T.L.C.A.S.A.P.
EXTD=
EXTT0=
EXTT1=
EXTT2=
EXTT3=
EXTT4=
EXTT5=
EXTT6=
EXTT7=
EXTT8=
EXTT9=
EXTT10=
EXTT11=
EXTT12=
EXTT13=
EXTT14=
EXTT15=
PLAYORDER=
